<mxfile host="Electron" agent="Mozilla/5.0 (Windows NT 10.0; Win64; x64) AppleWebKit/537.36 (KHTML, like Gecko) draw.io/26.0.16 Chrome/132.0.6834.196 Electron/34.2.0 Safari/537.36" version="26.0.16">
  <diagram name="Página-1" id="2wBWa6SH8k_BJZSG11Gt">
    <mxGraphModel dx="1095" dy="582" grid="1" gridSize="10" guides="1" tooltips="1" connect="1" arrows="1" fold="1" page="1" pageScale="1" pageWidth="827" pageHeight="1169" math="0" shadow="0">
      <root>
        <mxCell id="0" />
        <mxCell id="1" parent="0" />
        <mxCell id="Hs97w1eVz7pWMQiGefDF-9" style="edgeStyle=orthogonalEdgeStyle;rounded=0;orthogonalLoop=1;jettySize=auto;html=1;endArrow=none;startFill=0;" edge="1" parent="1" source="Hs97w1eVz7pWMQiGefDF-1" target="Hs97w1eVz7pWMQiGefDF-4">
          <mxGeometry relative="1" as="geometry">
            <Array as="points">
              <mxPoint x="240" y="430" />
            </Array>
          </mxGeometry>
        </mxCell>
        <mxCell id="Hs97w1eVz7pWMQiGefDF-10" style="edgeStyle=orthogonalEdgeStyle;rounded=0;orthogonalLoop=1;jettySize=auto;html=1;endArrow=none;startFill=0;" edge="1" parent="1" source="Hs97w1eVz7pWMQiGefDF-1" target="Hs97w1eVz7pWMQiGefDF-3">
          <mxGeometry relative="1" as="geometry">
            <Array as="points">
              <mxPoint x="240" y="470" />
            </Array>
          </mxGeometry>
        </mxCell>
        <mxCell id="Hs97w1eVz7pWMQiGefDF-11" style="edgeStyle=orthogonalEdgeStyle;rounded=0;orthogonalLoop=1;jettySize=auto;html=1;endArrow=none;startFill=0;" edge="1" parent="1" source="Hs97w1eVz7pWMQiGefDF-1" target="Hs97w1eVz7pWMQiGefDF-6">
          <mxGeometry relative="1" as="geometry">
            <Array as="points">
              <mxPoint x="240" y="510" />
            </Array>
          </mxGeometry>
        </mxCell>
        <mxCell id="Hs97w1eVz7pWMQiGefDF-95" style="edgeStyle=orthogonalEdgeStyle;rounded=0;orthogonalLoop=1;jettySize=auto;html=1;entryX=0;entryY=0.5;entryDx=0;entryDy=0;" edge="1" parent="1" source="Hs97w1eVz7pWMQiGefDF-1" target="Hs97w1eVz7pWMQiGefDF-94">
          <mxGeometry relative="1" as="geometry" />
        </mxCell>
        <mxCell id="Hs97w1eVz7pWMQiGefDF-105" value="0,1" style="edgeLabel;html=1;align=center;verticalAlign=middle;resizable=0;points=[];" vertex="1" connectable="0" parent="Hs97w1eVz7pWMQiGefDF-95">
          <mxGeometry x="-0.7333" y="-1" relative="1" as="geometry">
            <mxPoint as="offset" />
          </mxGeometry>
        </mxCell>
        <mxCell id="Hs97w1eVz7pWMQiGefDF-102" style="edgeStyle=orthogonalEdgeStyle;rounded=0;orthogonalLoop=1;jettySize=auto;html=1;entryX=0.5;entryY=0;entryDx=0;entryDy=0;" edge="1" parent="1" source="Hs97w1eVz7pWMQiGefDF-1" target="Hs97w1eVz7pWMQiGefDF-100">
          <mxGeometry relative="1" as="geometry">
            <Array as="points">
              <mxPoint x="240" y="90" />
              <mxPoint x="1105" y="90" />
            </Array>
          </mxGeometry>
        </mxCell>
        <mxCell id="Hs97w1eVz7pWMQiGefDF-106" value="0,1" style="edgeLabel;html=1;align=center;verticalAlign=middle;resizable=0;points=[];" vertex="1" connectable="0" parent="Hs97w1eVz7pWMQiGefDF-102">
          <mxGeometry x="0.8825" y="2" relative="1" as="geometry">
            <mxPoint as="offset" />
          </mxGeometry>
        </mxCell>
        <mxCell id="Hs97w1eVz7pWMQiGefDF-1" value="Enderecos" style="whiteSpace=wrap;html=1;" vertex="1" parent="1">
          <mxGeometry x="180" y="260" width="120" height="60" as="geometry" />
        </mxCell>
        <mxCell id="Hs97w1eVz7pWMQiGefDF-2" value="ID" style="shape=waypoint;sketch=0;size=6;pointerEvents=1;points=[];fillColor=none;resizable=0;rotatable=0;perimeter=centerPerimeter;snapToPoint=1;align=left;spacingLeft=15;verticalAlign=top;fontStyle=4" vertex="1" parent="1">
          <mxGeometry x="260" y="400" width="20" height="20" as="geometry" />
        </mxCell>
        <mxCell id="Hs97w1eVz7pWMQiGefDF-3" value="numero" style="shape=waypoint;sketch=0;size=6;pointerEvents=1;points=[];fillColor=none;resizable=0;rotatable=0;perimeter=centerPerimeter;snapToPoint=1;align=left;spacingLeft=15;verticalAlign=top;" vertex="1" parent="1">
          <mxGeometry x="260" y="480" width="20" height="20" as="geometry" />
        </mxCell>
        <mxCell id="Hs97w1eVz7pWMQiGefDF-4" value="cep" style="shape=waypoint;sketch=0;size=6;pointerEvents=1;points=[];fillColor=none;resizable=0;rotatable=0;perimeter=centerPerimeter;snapToPoint=1;align=left;spacingLeft=15;verticalAlign=top;" vertex="1" parent="1">
          <mxGeometry x="260" y="440" width="20" height="20" as="geometry" />
        </mxCell>
        <mxCell id="Hs97w1eVz7pWMQiGefDF-6" value="complemento" style="shape=waypoint;sketch=0;size=6;pointerEvents=1;points=[];fillColor=none;resizable=0;rotatable=0;perimeter=centerPerimeter;snapToPoint=1;align=left;spacingLeft=15;verticalAlign=top;" vertex="1" parent="1">
          <mxGeometry x="260" y="520" width="20" height="20" as="geometry" />
        </mxCell>
        <mxCell id="Hs97w1eVz7pWMQiGefDF-7" style="edgeStyle=orthogonalEdgeStyle;rounded=0;orthogonalLoop=1;jettySize=auto;html=1;entryX=0.583;entryY=-0.067;entryDx=0;entryDy=0;entryPerimeter=0;" edge="1" parent="1" source="Hs97w1eVz7pWMQiGefDF-4" target="Hs97w1eVz7pWMQiGefDF-4">
          <mxGeometry relative="1" as="geometry" />
        </mxCell>
        <mxCell id="Hs97w1eVz7pWMQiGefDF-8" style="edgeStyle=orthogonalEdgeStyle;rounded=0;orthogonalLoop=1;jettySize=auto;html=1;entryX=0.274;entryY=0.481;entryDx=0;entryDy=0;entryPerimeter=0;endArrow=none;startFill=0;" edge="1" parent="1" source="Hs97w1eVz7pWMQiGefDF-1" target="Hs97w1eVz7pWMQiGefDF-2">
          <mxGeometry relative="1" as="geometry">
            <Array as="points">
              <mxPoint x="240" y="390" />
            </Array>
          </mxGeometry>
        </mxCell>
        <mxCell id="Hs97w1eVz7pWMQiGefDF-96" style="edgeStyle=orthogonalEdgeStyle;rounded=0;orthogonalLoop=1;jettySize=auto;html=1;entryX=1;entryY=0.5;entryDx=0;entryDy=0;" edge="1" parent="1" source="Hs97w1eVz7pWMQiGefDF-12" target="Hs97w1eVz7pWMQiGefDF-94">
          <mxGeometry relative="1" as="geometry" />
        </mxCell>
        <mxCell id="Hs97w1eVz7pWMQiGefDF-104" value="1,N" style="edgeLabel;html=1;align=center;verticalAlign=middle;resizable=0;points=[];" vertex="1" connectable="0" parent="Hs97w1eVz7pWMQiGefDF-96">
          <mxGeometry x="-0.5893" relative="1" as="geometry">
            <mxPoint as="offset" />
          </mxGeometry>
        </mxCell>
        <mxCell id="Hs97w1eVz7pWMQiGefDF-117" style="edgeStyle=orthogonalEdgeStyle;rounded=0;orthogonalLoop=1;jettySize=auto;html=1;entryX=0;entryY=0.5;entryDx=0;entryDy=0;" edge="1" parent="1" target="Hs97w1eVz7pWMQiGefDF-116">
          <mxGeometry relative="1" as="geometry">
            <mxPoint x="750" y="259.9976190476188" as="sourcePoint" />
            <mxPoint x="1240" y="689.95" as="targetPoint" />
            <Array as="points">
              <mxPoint x="990" y="260" />
              <mxPoint x="990" y="675" />
            </Array>
          </mxGeometry>
        </mxCell>
        <mxCell id="Hs97w1eVz7pWMQiGefDF-143" value="0,N" style="edgeLabel;html=1;align=center;verticalAlign=middle;resizable=0;points=[];" vertex="1" connectable="0" parent="Hs97w1eVz7pWMQiGefDF-117">
          <mxGeometry x="0.875" relative="1" as="geometry">
            <mxPoint as="offset" />
          </mxGeometry>
        </mxCell>
        <mxCell id="Hs97w1eVz7pWMQiGefDF-12" value="Clientes" style="whiteSpace=wrap;html=1;" vertex="1" parent="1">
          <mxGeometry x="640" y="215" width="120" height="60" as="geometry" />
        </mxCell>
        <mxCell id="Hs97w1eVz7pWMQiGefDF-13" value="cpf" style="shape=waypoint;sketch=0;size=6;pointerEvents=1;points=[];fillColor=none;resizable=0;rotatable=0;perimeter=centerPerimeter;snapToPoint=1;align=left;spacingLeft=15;verticalAlign=top;fontStyle=4" vertex="1" parent="1">
          <mxGeometry x="720" y="325" width="20" height="20" as="geometry" />
        </mxCell>
        <mxCell id="Hs97w1eVz7pWMQiGefDF-15" value="escolaridade" style="shape=waypoint;sketch=0;size=6;pointerEvents=1;points=[];fillColor=none;resizable=0;rotatable=0;perimeter=centerPerimeter;snapToPoint=1;align=left;spacingLeft=15;verticalAlign=top;" vertex="1" parent="1">
          <mxGeometry x="720" y="445" width="20" height="20" as="geometry" />
        </mxCell>
        <mxCell id="Hs97w1eVz7pWMQiGefDF-16" value="nome" style="shape=waypoint;sketch=0;size=6;pointerEvents=1;points=[];fillColor=none;resizable=0;rotatable=0;perimeter=centerPerimeter;snapToPoint=1;align=left;spacingLeft=15;verticalAlign=top;" vertex="1" parent="1">
          <mxGeometry x="720" y="365" width="20" height="20" as="geometry" />
        </mxCell>
        <mxCell id="Hs97w1eVz7pWMQiGefDF-111" style="edgeStyle=orthogonalEdgeStyle;rounded=0;orthogonalLoop=1;jettySize=auto;html=1;entryX=0;entryY=0.5;entryDx=0;entryDy=0;" edge="1" parent="1" source="Hs97w1eVz7pWMQiGefDF-17" target="Hs97w1eVz7pWMQiGefDF-110">
          <mxGeometry relative="1" as="geometry" />
        </mxCell>
        <mxCell id="Hs97w1eVz7pWMQiGefDF-17" value="endereço" style="shape=waypoint;sketch=0;size=6;pointerEvents=1;points=[];fillColor=none;resizable=0;rotatable=0;perimeter=centerPerimeter;snapToPoint=1;align=left;spacingLeft=15;verticalAlign=top;" vertex="1" parent="1">
          <mxGeometry x="720" y="405" width="20" height="20" as="geometry" />
        </mxCell>
        <mxCell id="Hs97w1eVz7pWMQiGefDF-18" value="numero_celular" style="shape=waypoint;sketch=0;size=6;pointerEvents=1;points=[];fillColor=none;resizable=0;rotatable=0;perimeter=centerPerimeter;snapToPoint=1;align=left;spacingLeft=15;verticalAlign=top;" vertex="1" parent="1">
          <mxGeometry x="720" y="525" width="20" height="20" as="geometry" />
        </mxCell>
        <mxCell id="Hs97w1eVz7pWMQiGefDF-19" value="ddd_celular" style="shape=waypoint;sketch=0;size=6;pointerEvents=1;points=[];fillColor=none;resizable=0;rotatable=0;perimeter=centerPerimeter;snapToPoint=1;align=left;spacingLeft=15;verticalAlign=top;" vertex="1" parent="1">
          <mxGeometry x="720" y="485" width="20" height="20" as="geometry" />
        </mxCell>
        <mxCell id="Hs97w1eVz7pWMQiGefDF-20" value="max_exemplares_user" style="shape=waypoint;sketch=0;size=6;pointerEvents=1;points=[];fillColor=none;resizable=0;rotatable=0;perimeter=centerPerimeter;snapToPoint=1;align=left;spacingLeft=15;verticalAlign=top;" vertex="1" parent="1">
          <mxGeometry x="720" y="560" width="20" height="20" as="geometry" />
        </mxCell>
        <mxCell id="Hs97w1eVz7pWMQiGefDF-22" style="edgeStyle=orthogonalEdgeStyle;rounded=0;orthogonalLoop=1;jettySize=auto;html=1;entryX=0.333;entryY=0.328;entryDx=0;entryDy=0;entryPerimeter=0;endArrow=none;startFill=0;" edge="1" parent="1" source="Hs97w1eVz7pWMQiGefDF-12" target="Hs97w1eVz7pWMQiGefDF-13">
          <mxGeometry relative="1" as="geometry">
            <Array as="points">
              <mxPoint x="700" y="315" />
            </Array>
          </mxGeometry>
        </mxCell>
        <mxCell id="Hs97w1eVz7pWMQiGefDF-23" style="edgeStyle=orthogonalEdgeStyle;rounded=0;orthogonalLoop=1;jettySize=auto;html=1;entryX=0.4;entryY=0.373;entryDx=0;entryDy=0;entryPerimeter=0;endArrow=none;startFill=0;" edge="1" parent="1" source="Hs97w1eVz7pWMQiGefDF-12" target="Hs97w1eVz7pWMQiGefDF-16">
          <mxGeometry relative="1" as="geometry">
            <Array as="points">
              <mxPoint x="700" y="355" />
            </Array>
          </mxGeometry>
        </mxCell>
        <mxCell id="Hs97w1eVz7pWMQiGefDF-24" style="edgeStyle=orthogonalEdgeStyle;rounded=0;orthogonalLoop=1;jettySize=auto;html=1;entryX=0.285;entryY=0.162;entryDx=0;entryDy=0;entryPerimeter=0;endArrow=none;startFill=0;" edge="1" parent="1" source="Hs97w1eVz7pWMQiGefDF-12" target="Hs97w1eVz7pWMQiGefDF-17">
          <mxGeometry relative="1" as="geometry">
            <Array as="points">
              <mxPoint x="700" y="395" />
            </Array>
          </mxGeometry>
        </mxCell>
        <mxCell id="Hs97w1eVz7pWMQiGefDF-25" style="edgeStyle=orthogonalEdgeStyle;rounded=0;orthogonalLoop=1;jettySize=auto;html=1;entryX=0.285;entryY=0.123;entryDx=0;entryDy=0;entryPerimeter=0;endArrow=none;startFill=0;" edge="1" parent="1" source="Hs97w1eVz7pWMQiGefDF-12" target="Hs97w1eVz7pWMQiGefDF-15">
          <mxGeometry relative="1" as="geometry">
            <Array as="points">
              <mxPoint x="700" y="435" />
            </Array>
          </mxGeometry>
        </mxCell>
        <mxCell id="Hs97w1eVz7pWMQiGefDF-26" style="edgeStyle=orthogonalEdgeStyle;rounded=0;orthogonalLoop=1;jettySize=auto;html=1;entryX=0.823;entryY=0.162;entryDx=0;entryDy=0;entryPerimeter=0;endArrow=none;startFill=0;" edge="1" parent="1" source="Hs97w1eVz7pWMQiGefDF-12" target="Hs97w1eVz7pWMQiGefDF-19">
          <mxGeometry relative="1" as="geometry">
            <Array as="points">
              <mxPoint x="700" y="475" />
            </Array>
          </mxGeometry>
        </mxCell>
        <mxCell id="Hs97w1eVz7pWMQiGefDF-27" style="edgeStyle=orthogonalEdgeStyle;rounded=0;orthogonalLoop=1;jettySize=auto;html=1;entryX=0.554;entryY=0.315;entryDx=0;entryDy=0;entryPerimeter=0;endArrow=none;startFill=0;" edge="1" parent="1" source="Hs97w1eVz7pWMQiGefDF-12" target="Hs97w1eVz7pWMQiGefDF-18">
          <mxGeometry relative="1" as="geometry">
            <Array as="points">
              <mxPoint x="700" y="515" />
            </Array>
          </mxGeometry>
        </mxCell>
        <mxCell id="Hs97w1eVz7pWMQiGefDF-33" style="edgeStyle=orthogonalEdgeStyle;rounded=0;orthogonalLoop=1;jettySize=auto;html=1;entryX=0.635;entryY=0.856;entryDx=0;entryDy=0;entryPerimeter=0;endArrow=none;startFill=0;" edge="1" parent="1" source="Hs97w1eVz7pWMQiGefDF-12" target="Hs97w1eVz7pWMQiGefDF-20">
          <mxGeometry relative="1" as="geometry">
            <Array as="points">
              <mxPoint x="700" y="550" />
            </Array>
          </mxGeometry>
        </mxCell>
        <mxCell id="Hs97w1eVz7pWMQiGefDF-42" value="" style="edgeStyle=orthogonalEdgeStyle;rounded=0;orthogonalLoop=1;jettySize=auto;html=1;endArrow=none;startFill=0;entryX=0.71;entryY=1.08;entryDx=0;entryDy=0;entryPerimeter=0;" edge="1" parent="1" source="Hs97w1eVz7pWMQiGefDF-34" target="Hs97w1eVz7pWMQiGefDF-36">
          <mxGeometry relative="1" as="geometry">
            <Array as="points">
              <mxPoint x="1140" y="350" />
            </Array>
          </mxGeometry>
        </mxCell>
        <mxCell id="Hs97w1eVz7pWMQiGefDF-46" style="edgeStyle=orthogonalEdgeStyle;rounded=0;orthogonalLoop=1;jettySize=auto;html=1;endArrow=none;startFill=0;" edge="1" parent="1" source="Hs97w1eVz7pWMQiGefDF-34" target="Hs97w1eVz7pWMQiGefDF-38">
          <mxGeometry relative="1" as="geometry">
            <Array as="points">
              <mxPoint x="1140" y="390" />
            </Array>
          </mxGeometry>
        </mxCell>
        <mxCell id="Hs97w1eVz7pWMQiGefDF-49" style="edgeStyle=orthogonalEdgeStyle;rounded=0;orthogonalLoop=1;jettySize=auto;html=1;endArrow=none;startFill=0;" edge="1" parent="1" source="Hs97w1eVz7pWMQiGefDF-34" target="Hs97w1eVz7pWMQiGefDF-39">
          <mxGeometry relative="1" as="geometry">
            <Array as="points">
              <mxPoint x="1140" y="470" />
            </Array>
          </mxGeometry>
        </mxCell>
        <mxCell id="Hs97w1eVz7pWMQiGefDF-101" style="edgeStyle=orthogonalEdgeStyle;rounded=0;orthogonalLoop=1;jettySize=auto;html=1;entryX=0.5;entryY=1;entryDx=0;entryDy=0;exitX=0.203;exitY=-0.014;exitDx=0;exitDy=0;exitPerimeter=0;" edge="1" parent="1">
          <mxGeometry relative="1" as="geometry">
            <mxPoint x="1106.3600000000001" y="219.15999999999985" as="sourcePoint" />
            <mxPoint x="1107" y="160.0000000000001" as="targetPoint" />
          </mxGeometry>
        </mxCell>
        <mxCell id="Hs97w1eVz7pWMQiGefDF-103" value="1,N" style="edgeLabel;html=1;align=center;verticalAlign=middle;resizable=0;points=[];" vertex="1" connectable="0" parent="Hs97w1eVz7pWMQiGefDF-101">
          <mxGeometry x="-0.0627" y="-1" relative="1" as="geometry">
            <mxPoint as="offset" />
          </mxGeometry>
        </mxCell>
        <mxCell id="Hs97w1eVz7pWMQiGefDF-164" style="edgeStyle=orthogonalEdgeStyle;rounded=0;orthogonalLoop=1;jettySize=auto;html=1;entryX=0.5;entryY=0;entryDx=0;entryDy=0;" edge="1" parent="1" source="Hs97w1eVz7pWMQiGefDF-34" target="Hs97w1eVz7pWMQiGefDF-162">
          <mxGeometry relative="1" as="geometry" />
        </mxCell>
        <mxCell id="Hs97w1eVz7pWMQiGefDF-166" value="0,N" style="edgeLabel;html=1;align=center;verticalAlign=middle;resizable=0;points=[];" vertex="1" connectable="0" parent="Hs97w1eVz7pWMQiGefDF-164">
          <mxGeometry x="0.922" relative="1" as="geometry">
            <mxPoint as="offset" />
          </mxGeometry>
        </mxCell>
        <mxCell id="Hs97w1eVz7pWMQiGefDF-34" value="Funcionarios" style="whiteSpace=wrap;html=1;" vertex="1" parent="1">
          <mxGeometry x="1080" y="220" width="120" height="60" as="geometry" />
        </mxCell>
        <mxCell id="Hs97w1eVz7pWMQiGefDF-36" value="ID" style="shape=waypoint;sketch=0;size=6;pointerEvents=1;points=[];fillColor=none;resizable=0;rotatable=0;perimeter=centerPerimeter;snapToPoint=1;align=left;spacingLeft=15;verticalAlign=top;fontStyle=4" vertex="1" parent="1">
          <mxGeometry x="1170" y="360" width="20" height="20" as="geometry" />
        </mxCell>
        <mxCell id="Hs97w1eVz7pWMQiGefDF-37" value="nome" style="shape=waypoint;sketch=0;size=6;pointerEvents=1;points=[];fillColor=none;resizable=0;rotatable=0;perimeter=centerPerimeter;snapToPoint=1;align=left;spacingLeft=15;verticalAlign=top;" vertex="1" parent="1">
          <mxGeometry x="1170" y="440" width="20" height="20" as="geometry" />
        </mxCell>
        <mxCell id="Hs97w1eVz7pWMQiGefDF-108" style="edgeStyle=orthogonalEdgeStyle;rounded=0;orthogonalLoop=1;jettySize=auto;html=1;entryX=0;entryY=0.5;entryDx=0;entryDy=0;" edge="1" parent="1" source="Hs97w1eVz7pWMQiGefDF-38" target="Hs97w1eVz7pWMQiGefDF-107">
          <mxGeometry relative="1" as="geometry" />
        </mxCell>
        <mxCell id="Hs97w1eVz7pWMQiGefDF-38" value="endereco" style="shape=waypoint;sketch=0;size=6;pointerEvents=1;points=[];fillColor=none;resizable=0;rotatable=0;perimeter=centerPerimeter;snapToPoint=1;align=left;spacingLeft=15;verticalAlign=top;" vertex="1" parent="1">
          <mxGeometry x="1170" y="400" width="20" height="20" as="geometry" />
        </mxCell>
        <mxCell id="Hs97w1eVz7pWMQiGefDF-39" value="salario" style="shape=waypoint;sketch=0;size=6;pointerEvents=1;points=[];fillColor=none;resizable=0;rotatable=0;perimeter=centerPerimeter;snapToPoint=1;align=left;spacingLeft=15;verticalAlign=top;" vertex="1" parent="1">
          <mxGeometry x="1170" y="480" width="20" height="20" as="geometry" />
        </mxCell>
        <mxCell id="Hs97w1eVz7pWMQiGefDF-40" value="formacao" style="shape=waypoint;sketch=0;size=6;pointerEvents=1;points=[];fillColor=none;resizable=0;rotatable=0;perimeter=centerPerimeter;snapToPoint=1;align=left;spacingLeft=15;verticalAlign=top;" vertex="1" parent="1">
          <mxGeometry x="1170" y="520" width="20" height="20" as="geometry" />
        </mxCell>
        <mxCell id="Hs97w1eVz7pWMQiGefDF-41" value="numero_registro" style="shape=waypoint;sketch=0;size=6;pointerEvents=1;points=[];fillColor=none;resizable=0;rotatable=0;perimeter=centerPerimeter;snapToPoint=1;align=left;spacingLeft=15;verticalAlign=top;" vertex="1" parent="1">
          <mxGeometry x="1170" y="560" width="20" height="20" as="geometry" />
        </mxCell>
        <mxCell id="Hs97w1eVz7pWMQiGefDF-48" style="edgeStyle=orthogonalEdgeStyle;rounded=0;orthogonalLoop=1;jettySize=auto;html=1;entryX=0.527;entryY=0.104;entryDx=0;entryDy=0;entryPerimeter=0;endArrow=none;startFill=0;" edge="1" parent="1" source="Hs97w1eVz7pWMQiGefDF-34" target="Hs97w1eVz7pWMQiGefDF-37">
          <mxGeometry relative="1" as="geometry">
            <Array as="points">
              <mxPoint x="1140" y="430" />
            </Array>
          </mxGeometry>
        </mxCell>
        <mxCell id="Hs97w1eVz7pWMQiGefDF-50" style="edgeStyle=orthogonalEdgeStyle;rounded=0;orthogonalLoop=1;jettySize=auto;html=1;entryX=0.892;entryY=0.546;entryDx=0;entryDy=0;entryPerimeter=0;endArrow=none;startFill=0;" edge="1" parent="1" source="Hs97w1eVz7pWMQiGefDF-34" target="Hs97w1eVz7pWMQiGefDF-40">
          <mxGeometry relative="1" as="geometry">
            <Array as="points">
              <mxPoint x="1140" y="510" />
            </Array>
          </mxGeometry>
        </mxCell>
        <mxCell id="Hs97w1eVz7pWMQiGefDF-51" style="edgeStyle=orthogonalEdgeStyle;rounded=0;orthogonalLoop=1;jettySize=auto;html=1;entryX=0.79;entryY=0.72;entryDx=0;entryDy=0;entryPerimeter=0;endArrow=none;startFill=0;" edge="1" parent="1" source="Hs97w1eVz7pWMQiGefDF-34" target="Hs97w1eVz7pWMQiGefDF-41">
          <mxGeometry relative="1" as="geometry">
            <Array as="points">
              <mxPoint x="1140" y="550" />
            </Array>
          </mxGeometry>
        </mxCell>
        <mxCell id="Hs97w1eVz7pWMQiGefDF-125" style="edgeStyle=orthogonalEdgeStyle;rounded=0;orthogonalLoop=1;jettySize=auto;html=1;entryX=0;entryY=0.5;entryDx=0;entryDy=0;" edge="1" parent="1" source="Hs97w1eVz7pWMQiGefDF-52" target="Hs97w1eVz7pWMQiGefDF-124">
          <mxGeometry relative="1" as="geometry" />
        </mxCell>
        <mxCell id="Hs97w1eVz7pWMQiGefDF-127" value="0,N" style="edgeLabel;html=1;align=center;verticalAlign=middle;resizable=0;points=[];" vertex="1" connectable="0" parent="Hs97w1eVz7pWMQiGefDF-125">
          <mxGeometry x="-0.4589" y="1" relative="1" as="geometry">
            <mxPoint as="offset" />
          </mxGeometry>
        </mxCell>
        <mxCell id="Hs97w1eVz7pWMQiGefDF-52" value="Livros" style="whiteSpace=wrap;html=1;" vertex="1" parent="1">
          <mxGeometry x="200" y="790" width="120" height="60" as="geometry" />
        </mxCell>
        <mxCell id="Hs97w1eVz7pWMQiGefDF-53" value="ID" style="shape=waypoint;sketch=0;size=6;pointerEvents=1;points=[];fillColor=none;resizable=0;rotatable=0;perimeter=centerPerimeter;snapToPoint=1;align=left;spacingLeft=15;verticalAlign=top;fontStyle=4" vertex="1" parent="1">
          <mxGeometry x="280" y="930" width="20" height="20" as="geometry" />
        </mxCell>
        <mxCell id="Hs97w1eVz7pWMQiGefDF-54" value="editora" style="shape=waypoint;sketch=0;size=6;pointerEvents=1;points=[];fillColor=none;resizable=0;rotatable=0;perimeter=centerPerimeter;snapToPoint=1;align=left;spacingLeft=15;verticalAlign=top;" vertex="1" parent="1">
          <mxGeometry x="280" y="1050" width="20" height="20" as="geometry" />
        </mxCell>
        <mxCell id="Hs97w1eVz7pWMQiGefDF-55" value="titulo" style="shape=waypoint;sketch=0;size=6;pointerEvents=1;points=[];fillColor=none;resizable=0;rotatable=0;perimeter=centerPerimeter;snapToPoint=1;align=left;spacingLeft=15;verticalAlign=top;" vertex="1" parent="1">
          <mxGeometry x="280" y="1010" width="20" height="20" as="geometry" />
        </mxCell>
        <mxCell id="Hs97w1eVz7pWMQiGefDF-56" value="codigo_isbn" style="shape=waypoint;sketch=0;size=6;pointerEvents=1;points=[];fillColor=none;resizable=0;rotatable=0;perimeter=centerPerimeter;snapToPoint=1;align=left;spacingLeft=15;verticalAlign=top;" vertex="1" parent="1">
          <mxGeometry x="280" y="970" width="20" height="20" as="geometry" />
        </mxCell>
        <mxCell id="Hs97w1eVz7pWMQiGefDF-58" value="classificacao" style="shape=waypoint;sketch=0;size=6;pointerEvents=1;points=[];fillColor=none;resizable=0;rotatable=0;perimeter=centerPerimeter;snapToPoint=1;align=left;spacingLeft=15;verticalAlign=top;" vertex="1" parent="1">
          <mxGeometry x="280" y="1170" width="20" height="20" as="geometry" />
        </mxCell>
        <mxCell id="Hs97w1eVz7pWMQiGefDF-59" value="autor" style="shape=waypoint;sketch=0;size=6;pointerEvents=1;points=[];fillColor=none;resizable=0;rotatable=0;perimeter=centerPerimeter;snapToPoint=1;align=left;spacingLeft=15;verticalAlign=top;" vertex="1" parent="1">
          <mxGeometry x="280" y="1090" width="20" height="20" as="geometry" />
        </mxCell>
        <mxCell id="Hs97w1eVz7pWMQiGefDF-60" value="resenha" style="shape=waypoint;sketch=0;size=6;pointerEvents=1;points=[];fillColor=none;resizable=0;rotatable=0;perimeter=centerPerimeter;snapToPoint=1;align=left;spacingLeft=15;verticalAlign=top;" vertex="1" parent="1">
          <mxGeometry x="280" y="1130" width="20" height="20" as="geometry" />
        </mxCell>
        <mxCell id="Hs97w1eVz7pWMQiGefDF-64" style="edgeStyle=orthogonalEdgeStyle;rounded=0;orthogonalLoop=1;jettySize=auto;html=1;entryX=0.187;entryY=1.179;entryDx=0;entryDy=0;entryPerimeter=0;endArrow=none;startFill=0;" edge="1" parent="1" source="Hs97w1eVz7pWMQiGefDF-52" target="Hs97w1eVz7pWMQiGefDF-53">
          <mxGeometry relative="1" as="geometry">
            <Array as="points">
              <mxPoint x="260" y="920" />
            </Array>
          </mxGeometry>
        </mxCell>
        <mxCell id="Hs97w1eVz7pWMQiGefDF-65" style="edgeStyle=orthogonalEdgeStyle;rounded=0;orthogonalLoop=1;jettySize=auto;html=1;entryX=0.219;entryY=0.082;entryDx=0;entryDy=0;entryPerimeter=0;endArrow=none;startFill=0;" edge="1" parent="1" source="Hs97w1eVz7pWMQiGefDF-52" target="Hs97w1eVz7pWMQiGefDF-56">
          <mxGeometry relative="1" as="geometry">
            <Array as="points">
              <mxPoint x="260" y="960" />
            </Array>
          </mxGeometry>
        </mxCell>
        <mxCell id="Hs97w1eVz7pWMQiGefDF-66" style="edgeStyle=orthogonalEdgeStyle;rounded=0;orthogonalLoop=1;jettySize=auto;html=1;entryX=0.413;entryY=0.308;entryDx=0;entryDy=0;entryPerimeter=0;endArrow=none;startFill=0;" edge="1" parent="1" source="Hs97w1eVz7pWMQiGefDF-52" target="Hs97w1eVz7pWMQiGefDF-55">
          <mxGeometry relative="1" as="geometry">
            <Array as="points">
              <mxPoint x="260" y="1000" />
            </Array>
          </mxGeometry>
        </mxCell>
        <mxCell id="Hs97w1eVz7pWMQiGefDF-67" style="edgeStyle=orthogonalEdgeStyle;rounded=0;orthogonalLoop=1;jettySize=auto;html=1;entryX=0.123;entryY=0.276;entryDx=0;entryDy=0;entryPerimeter=0;endArrow=none;startFill=0;" edge="1" parent="1" source="Hs97w1eVz7pWMQiGefDF-52" target="Hs97w1eVz7pWMQiGefDF-54">
          <mxGeometry relative="1" as="geometry">
            <Array as="points">
              <mxPoint x="260" y="1040" />
            </Array>
          </mxGeometry>
        </mxCell>
        <mxCell id="Hs97w1eVz7pWMQiGefDF-68" style="edgeStyle=orthogonalEdgeStyle;rounded=0;orthogonalLoop=1;jettySize=auto;html=1;entryX=0.123;entryY=0.211;entryDx=0;entryDy=0;entryPerimeter=0;endArrow=none;startFill=0;" edge="1" parent="1" source="Hs97w1eVz7pWMQiGefDF-52" target="Hs97w1eVz7pWMQiGefDF-59">
          <mxGeometry relative="1" as="geometry">
            <Array as="points">
              <mxPoint x="260" y="1080" />
            </Array>
          </mxGeometry>
        </mxCell>
        <mxCell id="Hs97w1eVz7pWMQiGefDF-69" style="edgeStyle=orthogonalEdgeStyle;rounded=0;orthogonalLoop=1;jettySize=auto;html=1;entryX=0.381;entryY=-0.047;entryDx=0;entryDy=0;entryPerimeter=0;endArrow=none;startFill=0;" edge="1" parent="1" source="Hs97w1eVz7pWMQiGefDF-52" target="Hs97w1eVz7pWMQiGefDF-60">
          <mxGeometry relative="1" as="geometry">
            <Array as="points">
              <mxPoint x="260" y="1120" />
            </Array>
          </mxGeometry>
        </mxCell>
        <mxCell id="Hs97w1eVz7pWMQiGefDF-70" style="edgeStyle=orthogonalEdgeStyle;rounded=0;orthogonalLoop=1;jettySize=auto;html=1;entryX=0.51;entryY=0.276;entryDx=0;entryDy=0;entryPerimeter=0;endArrow=none;startFill=0;" edge="1" parent="1" source="Hs97w1eVz7pWMQiGefDF-52" target="Hs97w1eVz7pWMQiGefDF-58">
          <mxGeometry relative="1" as="geometry">
            <Array as="points">
              <mxPoint x="260" y="1160" />
            </Array>
          </mxGeometry>
        </mxCell>
        <mxCell id="Hs97w1eVz7pWMQiGefDF-78" style="edgeStyle=orthogonalEdgeStyle;rounded=0;orthogonalLoop=1;jettySize=auto;html=1;endArrow=none;startFill=0;" edge="1" parent="1" source="Hs97w1eVz7pWMQiGefDF-72" target="Hs97w1eVz7pWMQiGefDF-74">
          <mxGeometry relative="1" as="geometry">
            <Array as="points">
              <mxPoint x="720" y="990" />
            </Array>
          </mxGeometry>
        </mxCell>
        <mxCell id="Hs97w1eVz7pWMQiGefDF-121" style="edgeStyle=orthogonalEdgeStyle;rounded=0;orthogonalLoop=1;jettySize=auto;html=1;entryX=0;entryY=0.5;entryDx=0;entryDy=0;" edge="1" parent="1">
          <mxGeometry relative="1" as="geometry">
            <mxPoint x="781" y="820" as="sourcePoint" />
            <mxPoint x="971" y="820" as="targetPoint" />
          </mxGeometry>
        </mxCell>
        <mxCell id="Hs97w1eVz7pWMQiGefDF-139" value="0,1" style="edgeLabel;html=1;align=center;verticalAlign=middle;resizable=0;points=[];" vertex="1" connectable="0" parent="Hs97w1eVz7pWMQiGefDF-121">
          <mxGeometry x="0.665" relative="1" as="geometry">
            <mxPoint as="offset" />
          </mxGeometry>
        </mxCell>
        <mxCell id="Hs97w1eVz7pWMQiGefDF-126" style="edgeStyle=orthogonalEdgeStyle;rounded=0;orthogonalLoop=1;jettySize=auto;html=1;entryX=1;entryY=0.5;entryDx=0;entryDy=0;" edge="1" parent="1">
          <mxGeometry relative="1" as="geometry">
            <mxPoint x="661" y="820" as="sourcePoint" />
            <mxPoint x="551" y="820" as="targetPoint" />
          </mxGeometry>
        </mxCell>
        <mxCell id="Hs97w1eVz7pWMQiGefDF-129" value="1,N" style="edgeLabel;html=1;align=center;verticalAlign=middle;resizable=0;points=[];" vertex="1" connectable="0" parent="Hs97w1eVz7pWMQiGefDF-126">
          <mxGeometry x="-0.5096" relative="1" as="geometry">
            <mxPoint as="offset" />
          </mxGeometry>
        </mxCell>
        <mxCell id="Hs97w1eVz7pWMQiGefDF-72" value="Exemplares" style="whiteSpace=wrap;html=1;" vertex="1" parent="1">
          <mxGeometry x="660" y="790" width="120" height="60" as="geometry" />
        </mxCell>
        <mxCell id="Hs97w1eVz7pWMQiGefDF-73" value="ID" style="shape=waypoint;sketch=0;size=6;pointerEvents=1;points=[];fillColor=none;resizable=0;rotatable=0;perimeter=centerPerimeter;snapToPoint=1;align=left;spacingLeft=15;verticalAlign=top;fontStyle=4" vertex="1" parent="1">
          <mxGeometry x="730" y="920" width="20" height="20" as="geometry" />
        </mxCell>
        <mxCell id="Hs97w1eVz7pWMQiGefDF-74" value="status    ENUM (&#39;disponivel&#39;, &#39;emprestado&#39;)" style="shape=waypoint;sketch=0;size=6;pointerEvents=1;points=[];fillColor=none;resizable=0;rotatable=0;perimeter=centerPerimeter;snapToPoint=1;align=left;spacingLeft=15;verticalAlign=top;" vertex="1" parent="1">
          <mxGeometry x="730" y="1000" width="20" height="20" as="geometry" />
        </mxCell>
        <mxCell id="Hs97w1eVz7pWMQiGefDF-75" value="livro_original" style="shape=waypoint;sketch=0;size=6;pointerEvents=1;points=[];fillColor=none;resizable=0;rotatable=0;perimeter=centerPerimeter;snapToPoint=1;align=left;spacingLeft=15;verticalAlign=top;" vertex="1" parent="1">
          <mxGeometry x="730" y="960" width="20" height="20" as="geometry" />
        </mxCell>
        <mxCell id="Hs97w1eVz7pWMQiGefDF-76" style="edgeStyle=orthogonalEdgeStyle;rounded=0;orthogonalLoop=1;jettySize=auto;html=1;entryX=0.444;entryY=0.73;entryDx=0;entryDy=0;entryPerimeter=0;endArrow=none;startFill=0;" edge="1" parent="1" source="Hs97w1eVz7pWMQiGefDF-72" target="Hs97w1eVz7pWMQiGefDF-73">
          <mxGeometry relative="1" as="geometry">
            <Array as="points">
              <mxPoint x="720" y="910" />
            </Array>
          </mxGeometry>
        </mxCell>
        <mxCell id="Hs97w1eVz7pWMQiGefDF-77" style="edgeStyle=orthogonalEdgeStyle;rounded=0;orthogonalLoop=1;jettySize=auto;html=1;entryX=-0.041;entryY=0.579;entryDx=0;entryDy=0;entryPerimeter=0;endArrow=none;startFill=0;" edge="1" parent="1" source="Hs97w1eVz7pWMQiGefDF-72" target="Hs97w1eVz7pWMQiGefDF-75">
          <mxGeometry relative="1" as="geometry">
            <Array as="points">
              <mxPoint x="720" y="950" />
            </Array>
          </mxGeometry>
        </mxCell>
        <mxCell id="Hs97w1eVz7pWMQiGefDF-87" style="edgeStyle=orthogonalEdgeStyle;rounded=0;orthogonalLoop=1;jettySize=auto;html=1;endArrow=none;startFill=0;" edge="1" parent="1" source="Hs97w1eVz7pWMQiGefDF-79" target="Hs97w1eVz7pWMQiGefDF-80">
          <mxGeometry relative="1" as="geometry">
            <Array as="points">
              <mxPoint x="1300" y="920" />
            </Array>
          </mxGeometry>
        </mxCell>
        <mxCell id="Hs97w1eVz7pWMQiGefDF-89" style="edgeStyle=orthogonalEdgeStyle;rounded=0;orthogonalLoop=1;jettySize=auto;html=1;endArrow=none;startFill=0;" edge="1" parent="1" source="Hs97w1eVz7pWMQiGefDF-79" target="Hs97w1eVz7pWMQiGefDF-83">
          <mxGeometry relative="1" as="geometry">
            <Array as="points">
              <mxPoint x="1300" y="1000" />
            </Array>
          </mxGeometry>
        </mxCell>
        <mxCell id="Hs97w1eVz7pWMQiGefDF-90" style="edgeStyle=orthogonalEdgeStyle;rounded=0;orthogonalLoop=1;jettySize=auto;html=1;endArrow=none;startFill=0;" edge="1" parent="1" source="Hs97w1eVz7pWMQiGefDF-79" target="Hs97w1eVz7pWMQiGefDF-82">
          <mxGeometry relative="1" as="geometry">
            <Array as="points">
              <mxPoint x="1300" y="1040" />
            </Array>
          </mxGeometry>
        </mxCell>
        <mxCell id="Hs97w1eVz7pWMQiGefDF-118" style="edgeStyle=orthogonalEdgeStyle;rounded=0;orthogonalLoop=1;jettySize=auto;html=1;entryX=0.5;entryY=1;entryDx=0;entryDy=0;" edge="1" parent="1">
          <mxGeometry relative="1" as="geometry">
            <mxPoint x="1301" y="790" as="sourcePoint" />
            <mxPoint x="1301" y="700" as="targetPoint" />
          </mxGeometry>
        </mxCell>
        <mxCell id="Hs97w1eVz7pWMQiGefDF-144" value="1,1" style="edgeLabel;html=1;align=center;verticalAlign=middle;resizable=0;points=[];" vertex="1" connectable="0" parent="Hs97w1eVz7pWMQiGefDF-118">
          <mxGeometry x="0.4333" relative="1" as="geometry">
            <mxPoint as="offset" />
          </mxGeometry>
        </mxCell>
        <mxCell id="Hs97w1eVz7pWMQiGefDF-122" style="edgeStyle=orthogonalEdgeStyle;rounded=0;orthogonalLoop=1;jettySize=auto;html=1;entryX=1;entryY=0.5;entryDx=0;entryDy=0;" edge="1" parent="1" source="Hs97w1eVz7pWMQiGefDF-79" target="Hs97w1eVz7pWMQiGefDF-120">
          <mxGeometry relative="1" as="geometry" />
        </mxCell>
        <mxCell id="Hs97w1eVz7pWMQiGefDF-140" value="0,N" style="edgeLabel;html=1;align=center;verticalAlign=middle;resizable=0;points=[];" vertex="1" connectable="0" parent="Hs97w1eVz7pWMQiGefDF-122">
          <mxGeometry x="0.5794" y="-1" relative="1" as="geometry">
            <mxPoint as="offset" />
          </mxGeometry>
        </mxCell>
        <mxCell id="Hs97w1eVz7pWMQiGefDF-163" style="edgeStyle=orthogonalEdgeStyle;rounded=0;orthogonalLoop=1;jettySize=auto;html=1;entryX=0;entryY=0.5;entryDx=0;entryDy=0;" edge="1" parent="1" source="Hs97w1eVz7pWMQiGefDF-79" target="Hs97w1eVz7pWMQiGefDF-162">
          <mxGeometry relative="1" as="geometry" />
        </mxCell>
        <mxCell id="Hs97w1eVz7pWMQiGefDF-165" value="1,1" style="edgeLabel;html=1;align=center;verticalAlign=middle;resizable=0;points=[];" vertex="1" connectable="0" parent="Hs97w1eVz7pWMQiGefDF-163">
          <mxGeometry x="0.5868" y="-2" relative="1" as="geometry">
            <mxPoint as="offset" />
          </mxGeometry>
        </mxCell>
        <mxCell id="Hs97w1eVz7pWMQiGefDF-79" value="Emprestimos" style="whiteSpace=wrap;html=1;" vertex="1" parent="1">
          <mxGeometry x="1240" y="790" width="120" height="60" as="geometry" />
        </mxCell>
        <mxCell id="Hs97w1eVz7pWMQiGefDF-80" value="ID" style="shape=waypoint;sketch=0;size=6;pointerEvents=1;points=[];fillColor=none;resizable=0;rotatable=0;perimeter=centerPerimeter;snapToPoint=1;align=left;spacingLeft=15;verticalAlign=top;fontStyle=4" vertex="1" parent="1">
          <mxGeometry x="1330" y="930" width="20" height="20" as="geometry" />
        </mxCell>
        <mxCell id="Hs97w1eVz7pWMQiGefDF-168" style="edgeStyle=orthogonalEdgeStyle;rounded=0;orthogonalLoop=1;jettySize=auto;html=1;entryX=0;entryY=0.5;entryDx=0;entryDy=0;" edge="1" parent="1" source="Hs97w1eVz7pWMQiGefDF-81" target="Hs97w1eVz7pWMQiGefDF-167">
          <mxGeometry relative="1" as="geometry" />
        </mxCell>
        <mxCell id="Hs97w1eVz7pWMQiGefDF-81" value="nome_funcionario" style="shape=waypoint;sketch=0;size=6;pointerEvents=1;points=[];fillColor=none;resizable=0;rotatable=0;perimeter=centerPerimeter;snapToPoint=1;align=left;spacingLeft=15;verticalAlign=top;" vertex="1" parent="1">
          <mxGeometry x="1330" y="970" width="20" height="20" as="geometry" />
        </mxCell>
        <mxCell id="Hs97w1eVz7pWMQiGefDF-174" style="edgeStyle=orthogonalEdgeStyle;rounded=0;orthogonalLoop=1;jettySize=auto;html=1;entryX=0;entryY=0.5;entryDx=0;entryDy=0;" edge="1" parent="1" source="Hs97w1eVz7pWMQiGefDF-82" target="Hs97w1eVz7pWMQiGefDF-173">
          <mxGeometry relative="1" as="geometry">
            <Array as="points">
              <mxPoint x="1475" y="1060" />
              <mxPoint x="1475" y="1140" />
            </Array>
          </mxGeometry>
        </mxCell>
        <mxCell id="Hs97w1eVz7pWMQiGefDF-82" value="id_exemplar" style="shape=waypoint;sketch=0;size=6;pointerEvents=1;points=[];fillColor=none;resizable=0;rotatable=0;perimeter=centerPerimeter;snapToPoint=1;align=left;spacingLeft=15;verticalAlign=top;" vertex="1" parent="1">
          <mxGeometry x="1330" y="1050" width="20" height="20" as="geometry" />
        </mxCell>
        <mxCell id="Hs97w1eVz7pWMQiGefDF-171" style="edgeStyle=orthogonalEdgeStyle;rounded=0;orthogonalLoop=1;jettySize=auto;html=1;entryX=0;entryY=0.5;entryDx=0;entryDy=0;" edge="1" parent="1" source="Hs97w1eVz7pWMQiGefDF-83" target="Hs97w1eVz7pWMQiGefDF-170">
          <mxGeometry relative="1" as="geometry">
            <Array as="points">
              <mxPoint x="1490" y="1020" />
              <mxPoint x="1490" y="1060" />
            </Array>
          </mxGeometry>
        </mxCell>
        <mxCell id="Hs97w1eVz7pWMQiGefDF-83" value="nome_cliente" style="shape=waypoint;sketch=0;size=6;pointerEvents=1;points=[];fillColor=none;resizable=0;rotatable=0;perimeter=centerPerimeter;snapToPoint=1;align=left;spacingLeft=15;verticalAlign=top;" vertex="1" parent="1">
          <mxGeometry x="1330" y="1010" width="20" height="20" as="geometry" />
        </mxCell>
        <mxCell id="Hs97w1eVz7pWMQiGefDF-84" value="data_coleta" style="shape=waypoint;sketch=0;size=6;pointerEvents=1;points=[];fillColor=none;resizable=0;rotatable=0;perimeter=centerPerimeter;snapToPoint=1;align=left;spacingLeft=15;verticalAlign=top;" vertex="1" parent="1">
          <mxGeometry x="1330" y="1090" width="20" height="20" as="geometry" />
        </mxCell>
        <mxCell id="Hs97w1eVz7pWMQiGefDF-88" style="edgeStyle=orthogonalEdgeStyle;rounded=0;orthogonalLoop=1;jettySize=auto;html=1;entryX=0.175;entryY=0.25;entryDx=0;entryDy=0;entryPerimeter=0;endArrow=none;startFill=0;" edge="1" parent="1" source="Hs97w1eVz7pWMQiGefDF-79" target="Hs97w1eVz7pWMQiGefDF-81">
          <mxGeometry relative="1" as="geometry">
            <Array as="points">
              <mxPoint x="1300" y="960" />
            </Array>
          </mxGeometry>
        </mxCell>
        <mxCell id="Hs97w1eVz7pWMQiGefDF-91" style="edgeStyle=orthogonalEdgeStyle;rounded=0;orthogonalLoop=1;jettySize=auto;html=1;entryX=0.15;entryY=0.175;entryDx=0;entryDy=0;entryPerimeter=0;endArrow=none;startFill=0;" edge="1" parent="1" source="Hs97w1eVz7pWMQiGefDF-79" target="Hs97w1eVz7pWMQiGefDF-84">
          <mxGeometry relative="1" as="geometry">
            <Array as="points">
              <mxPoint x="1300" y="1080" />
            </Array>
          </mxGeometry>
        </mxCell>
        <mxCell id="Hs97w1eVz7pWMQiGefDF-92" style="edgeStyle=orthogonalEdgeStyle;rounded=0;orthogonalLoop=1;jettySize=auto;html=1;entryX=0.447;entryY=0.279;entryDx=0;entryDy=0;entryPerimeter=0;endArrow=none;startFill=0;" edge="1" parent="1" source="Hs97w1eVz7pWMQiGefDF-79" target="Hs97w1eVz7pWMQiGefDF-141">
          <mxGeometry relative="1" as="geometry">
            <mxPoint x="1340" y="1140" as="targetPoint" />
            <Array as="points">
              <mxPoint x="1300" y="1120" />
              <mxPoint x="1340" y="1120" />
            </Array>
          </mxGeometry>
        </mxCell>
        <mxCell id="Hs97w1eVz7pWMQiGefDF-94" value="endereco" style="rhombus;whiteSpace=wrap;html=1;" vertex="1" parent="1">
          <mxGeometry x="430" y="200" width="70" height="50" as="geometry" />
        </mxCell>
        <mxCell id="Hs97w1eVz7pWMQiGefDF-100" value="endereco" style="rhombus;whiteSpace=wrap;html=1;" vertex="1" parent="1">
          <mxGeometry x="1070" y="110" width="70" height="50" as="geometry" />
        </mxCell>
        <mxCell id="Hs97w1eVz7pWMQiGefDF-107" value="FK" style="rhombus;whiteSpace=wrap;html=1;" vertex="1" parent="1">
          <mxGeometry x="1360" y="400" width="40" height="40" as="geometry" />
        </mxCell>
        <mxCell id="Hs97w1eVz7pWMQiGefDF-109" style="edgeStyle=orthogonalEdgeStyle;rounded=0;orthogonalLoop=1;jettySize=auto;html=1;entryX=0.5;entryY=0.1;entryDx=0;entryDy=0;entryPerimeter=0;" edge="1" parent="1" source="Hs97w1eVz7pWMQiGefDF-107" target="Hs97w1eVz7pWMQiGefDF-2">
          <mxGeometry relative="1" as="geometry">
            <Array as="points">
              <mxPoint x="1380" y="70" />
              <mxPoint x="270" y="70" />
            </Array>
          </mxGeometry>
        </mxCell>
        <mxCell id="Hs97w1eVz7pWMQiGefDF-110" value="FK" style="rhombus;whiteSpace=wrap;html=1;" vertex="1" parent="1">
          <mxGeometry x="880" y="400" width="40" height="35" as="geometry" />
        </mxCell>
        <mxCell id="Hs97w1eVz7pWMQiGefDF-112" style="edgeStyle=orthogonalEdgeStyle;rounded=0;orthogonalLoop=1;jettySize=auto;html=1;entryX=0.75;entryY=0.55;entryDx=0;entryDy=0;entryPerimeter=0;" edge="1" parent="1" source="Hs97w1eVz7pWMQiGefDF-110" target="Hs97w1eVz7pWMQiGefDF-2">
          <mxGeometry relative="1" as="geometry">
            <Array as="points">
              <mxPoint x="900" y="60" />
              <mxPoint x="270" y="60" />
            </Array>
          </mxGeometry>
        </mxCell>
        <mxCell id="Hs97w1eVz7pWMQiGefDF-116" value="emprestimo" style="rhombus;whiteSpace=wrap;html=1;" vertex="1" parent="1">
          <mxGeometry x="1250" y="650" width="100" height="50" as="geometry" />
        </mxCell>
        <mxCell id="Hs97w1eVz7pWMQiGefDF-120" value="emprestimo" style="rhombus;whiteSpace=wrap;html=1;" vertex="1" parent="1">
          <mxGeometry x="970" y="795" width="100" height="50" as="geometry" />
        </mxCell>
        <mxCell id="Hs97w1eVz7pWMQiGefDF-124" value="exemplar" style="rhombus;whiteSpace=wrap;html=1;" vertex="1" parent="1">
          <mxGeometry x="460" y="795" width="90" height="50" as="geometry" />
        </mxCell>
        <mxCell id="Hs97w1eVz7pWMQiGefDF-135" style="edgeStyle=orthogonalEdgeStyle;rounded=0;orthogonalLoop=1;jettySize=auto;html=1;" edge="1" parent="1" source="Hs97w1eVz7pWMQiGefDF-133">
          <mxGeometry relative="1" as="geometry">
            <mxPoint x="290" y="940" as="targetPoint" />
            <Array as="points">
              <mxPoint x="430" y="990" />
              <mxPoint x="430" y="940" />
            </Array>
          </mxGeometry>
        </mxCell>
        <mxCell id="Hs97w1eVz7pWMQiGefDF-137" value="1,N" style="edgeLabel;html=1;align=center;verticalAlign=middle;resizable=0;points=[];" vertex="1" connectable="0" parent="Hs97w1eVz7pWMQiGefDF-135">
          <mxGeometry x="-0.6951" relative="1" as="geometry">
            <mxPoint x="18" as="offset" />
          </mxGeometry>
        </mxCell>
        <mxCell id="Hs97w1eVz7pWMQiGefDF-133" value="FK" style="rhombus;whiteSpace=wrap;html=1;" vertex="1" parent="1">
          <mxGeometry x="560" y="970" width="40" height="40" as="geometry" />
        </mxCell>
        <mxCell id="Hs97w1eVz7pWMQiGefDF-134" style="edgeStyle=orthogonalEdgeStyle;rounded=0;orthogonalLoop=1;jettySize=auto;html=1;entryX=1;entryY=0.5;entryDx=0;entryDy=0;exitX=0.025;exitY=0.483;exitDx=0;exitDy=0;exitPerimeter=0;" edge="1" parent="1" source="Hs97w1eVz7pWMQiGefDF-75" target="Hs97w1eVz7pWMQiGefDF-133">
          <mxGeometry relative="1" as="geometry" />
        </mxCell>
        <mxCell id="Hs97w1eVz7pWMQiGefDF-136" value="1,1" style="edgeLabel;html=1;align=center;verticalAlign=middle;resizable=0;points=[];" vertex="1" connectable="0" parent="Hs97w1eVz7pWMQiGefDF-134">
          <mxGeometry x="-0.6932" y="2" relative="1" as="geometry">
            <mxPoint x="-85" y="18" as="offset" />
          </mxGeometry>
        </mxCell>
        <mxCell id="Hs97w1eVz7pWMQiGefDF-141" value="data_devolucao" style="shape=waypoint;sketch=0;size=6;pointerEvents=1;points=[];fillColor=none;resizable=0;rotatable=0;perimeter=centerPerimeter;snapToPoint=1;align=left;spacingLeft=15;verticalAlign=top;" vertex="1" parent="1">
          <mxGeometry x="1330" y="1130" width="20" height="20" as="geometry" />
        </mxCell>
        <mxCell id="Hs97w1eVz7pWMQiGefDF-146" value="prazo_emprestimo" style="shape=waypoint;sketch=0;size=6;pointerEvents=1;points=[];fillColor=none;resizable=0;rotatable=0;perimeter=centerPerimeter;snapToPoint=1;align=left;spacingLeft=15;verticalAlign=top;" vertex="1" parent="1">
          <mxGeometry x="280" y="1210" width="20" height="20" as="geometry" />
        </mxCell>
        <mxCell id="Hs97w1eVz7pWMQiGefDF-147" style="edgeStyle=orthogonalEdgeStyle;rounded=0;orthogonalLoop=1;jettySize=auto;html=1;entryX=0.142;entryY=0.525;entryDx=0;entryDy=0;entryPerimeter=0;endArrow=none;startFill=0;" edge="1" parent="1" source="Hs97w1eVz7pWMQiGefDF-52" target="Hs97w1eVz7pWMQiGefDF-146">
          <mxGeometry relative="1" as="geometry">
            <Array as="points">
              <mxPoint x="260" y="1200" />
              <mxPoint x="290" y="1200" />
            </Array>
          </mxGeometry>
        </mxCell>
        <mxCell id="Hs97w1eVz7pWMQiGefDF-162" value="responsavel&lt;div&gt;emprestimo&lt;/div&gt;" style="rhombus;whiteSpace=wrap;html=1;" vertex="1" parent="1">
          <mxGeometry x="1590" y="785" width="150" height="70" as="geometry" />
        </mxCell>
        <mxCell id="Hs97w1eVz7pWMQiGefDF-167" value="FK" style="rhombus;whiteSpace=wrap;html=1;" vertex="1" parent="1">
          <mxGeometry x="1600" y="960" width="40" height="40" as="geometry" />
        </mxCell>
        <mxCell id="Hs97w1eVz7pWMQiGefDF-169" style="edgeStyle=orthogonalEdgeStyle;rounded=0;orthogonalLoop=1;jettySize=auto;html=1;entryX=0.605;entryY=0.795;entryDx=0;entryDy=0;entryPerimeter=0;" edge="1" parent="1" source="Hs97w1eVz7pWMQiGefDF-167" target="Hs97w1eVz7pWMQiGefDF-36">
          <mxGeometry relative="1" as="geometry">
            <Array as="points">
              <mxPoint x="1780" y="980" />
              <mxPoint x="1780" y="370" />
            </Array>
          </mxGeometry>
        </mxCell>
        <mxCell id="Hs97w1eVz7pWMQiGefDF-172" style="edgeStyle=orthogonalEdgeStyle;rounded=0;orthogonalLoop=1;jettySize=auto;html=1;" edge="1" parent="1" source="Hs97w1eVz7pWMQiGefDF-170">
          <mxGeometry relative="1" as="geometry">
            <mxPoint x="730" y="329.9999999999998" as="targetPoint" />
            <Array as="points">
              <mxPoint x="1790" y="1060" />
              <mxPoint x="1790" y="610" />
              <mxPoint x="980" y="610" />
              <mxPoint x="980" y="330" />
            </Array>
          </mxGeometry>
        </mxCell>
        <mxCell id="Hs97w1eVz7pWMQiGefDF-170" value="FK" style="rhombus;whiteSpace=wrap;html=1;" vertex="1" parent="1">
          <mxGeometry x="1600" y="1040" width="40" height="40" as="geometry" />
        </mxCell>
        <mxCell id="Hs97w1eVz7pWMQiGefDF-173" value="FK" style="rhombus;whiteSpace=wrap;html=1;" vertex="1" parent="1">
          <mxGeometry x="1600" y="1120" width="40" height="40" as="geometry" />
        </mxCell>
        <mxCell id="Hs97w1eVz7pWMQiGefDF-175" style="edgeStyle=orthogonalEdgeStyle;rounded=0;orthogonalLoop=1;jettySize=auto;html=1;entryX=0.693;entryY=0.914;entryDx=0;entryDy=0;entryPerimeter=0;" edge="1" parent="1" source="Hs97w1eVz7pWMQiGefDF-173" target="Hs97w1eVz7pWMQiGefDF-73">
          <mxGeometry relative="1" as="geometry">
            <Array as="points">
              <mxPoint x="1620" y="1240" />
              <mxPoint x="1000" y="1240" />
              <mxPoint x="1000" y="930" />
            </Array>
          </mxGeometry>
        </mxCell>
        <mxCell id="Hs97w1eVz7pWMQiGefDF-176" value="1,1" style="text;html=1;align=center;verticalAlign=middle;resizable=0;points=[];autosize=1;strokeColor=none;fillColor=none;" vertex="1" parent="1">
          <mxGeometry x="1600" y="928" width="40" height="30" as="geometry" />
        </mxCell>
        <mxCell id="Hs97w1eVz7pWMQiGefDF-177" value="1,1" style="text;html=1;align=center;verticalAlign=middle;resizable=0;points=[];autosize=1;strokeColor=none;fillColor=none;" vertex="1" parent="1">
          <mxGeometry x="1600" y="1010" width="40" height="30" as="geometry" />
        </mxCell>
        <mxCell id="Hs97w1eVz7pWMQiGefDF-178" value="1,1" style="text;html=1;align=center;verticalAlign=middle;resizable=0;points=[];autosize=1;strokeColor=none;fillColor=none;" vertex="1" parent="1">
          <mxGeometry x="1600" y="1090" width="40" height="30" as="geometry" />
        </mxCell>
      </root>
    </mxGraphModel>
  </diagram>
</mxfile>
